<svg width="118" height="93" viewBox="0 0 118 93" fill="none" xmlns="http://www.w3.org/2000/svg">
<path d="M115.583 44.1071C113.961 39.026 111.485 34.7123 109.414 31.6512C108.309 30.0177 107.319 28.7425 106.628 27.9017C108.433 26.6265 110.018 25.1623 111.279 23.4582C112.926 21.2379 114.006 18.6056 114.294 15.584C114.344 15.0536 114.062 14.5515 113.58 14.3201C113.101 14.086 112.534 14.1791 112.15 14.5486H112.147L112.142 14.5543C112.867 12.6922 113.456 10.2603 113.456 7.28386C113.456 5.67009 113.284 3.89833 112.875 1.97704C112.759 1.441 112.317 1.04038 111.772 0.981131C111.228 0.919063 110.709 1.21248 110.481 1.71184C108.825 5.30332 106.583 8.40955 103.213 10.9938C101.1 12.6132 98.5308 14.0295 95.3607 15.1975C90.5154 12.5427 84.9424 11.4622 79.4371 11.4622C75.4688 11.4622 71.5288 12.0208 67.8878 12.98C64.5823 13.849 61.5307 15.0508 58.9191 16.4784C56.3074 15.0508 53.2558 13.849 49.9504 12.98C46.3093 12.0208 42.3693 11.4622 38.4011 11.4622C32.8901 11.4622 27.3143 12.5427 22.4662 15.2032C19.2905 14.0323 16.7155 12.6161 14.6002 10.9938C11.2271 8.40955 8.98774 5.30332 7.3322 1.71184C7.10375 1.21248 6.58481 0.919063 6.04048 0.981131C5.49334 1.04038 5.05336 1.441 4.93773 1.97704C4.52878 3.89833 4.35674 5.67009 4.35674 7.28386C4.35674 10.2603 4.94337 12.6922 5.67102 14.5543L5.66256 14.5486C5.42001 14.3145 5.10413 14.1932 4.78261 14.1932C4.59647 14.1932 4.40751 14.2327 4.22982 14.3201C3.75037 14.5515 3.46833 15.0536 3.5191 15.584C3.80677 18.6056 4.88696 21.2379 6.53404 23.4582C7.76653 25.1256 9.30926 26.5673 11.0663 27.8199C11.1058 27.8481 11.1509 27.8763 11.1932 27.9074C10.4938 28.7622 9.53771 30.0036 8.4829 31.5553C6.37046 34.6643 3.85472 39.0232 2.2302 44.1071C0.918742 48.2206 0.233398 52.6076 0.233398 56.9947C0.233398 63.0492 1.53922 69.1065 4.35674 74.3992C5.48488 76.5151 6.85838 78.5098 8.48572 80.321C8.76775 80.637 9.05825 80.9473 9.35721 81.2492C9.48412 81.3818 9.61386 81.5088 9.74641 81.6386C9.91845 81.8078 10.0933 81.9743 10.271 82.1379C11.6163 83.3934 13.1083 84.5332 14.7441 85.5376C15.6268 86.0821 16.5519 86.5871 17.5165 87.0469C18.2723 87.4081 19.0225 87.7269 19.7614 88.0118C23.521 89.4563 27.0718 89.967 30.3631 89.9641C34.0831 89.9613 37.4788 89.3293 40.5587 88.7199C43.6385 88.1077 46.4109 87.5294 48.8505 87.535C49.6825 87.535 50.4778 87.5999 51.2393 87.7438C52.3843 87.961 53.4561 88.3532 54.5222 89.0049C55.5403 89.6312 56.5528 90.503 57.5738 91.7246C57.8558 92.1788 58.3522 92.4638 58.8937 92.4638H58.9191C59.4634 92.4638 59.9598 92.176 60.239 91.719C61.6181 90.0742 62.9747 89.0641 64.3595 88.4378C65.0787 88.1106 65.8092 87.8877 66.5735 87.7438C67.335 87.5999 68.1275 87.535 68.9595 87.535C71.3991 87.5294 74.1715 88.1077 77.2541 88.7199C80.3339 89.3293 83.7268 89.9613 87.4497 89.9641C90.8284 89.967 94.478 89.4281 98.3503 87.8933C98.9905 87.6394 99.6392 87.3573 100.293 87.0469C102.067 86.2034 103.698 85.2131 105.187 84.0987C106.098 83.4244 106.955 82.6993 107.762 81.932C107.863 81.836 107.965 81.7373 108.066 81.6386C108.269 81.4382 108.47 81.2379 108.667 81.032C108.96 80.7245 109.251 80.4113 109.524 80.0925C112.071 77.2007 113.975 73.8631 115.289 70.2999C116.843 66.0792 117.579 61.537 117.579 56.9947C117.579 52.4525 116.894 48.2206 115.583 44.1071ZM38.4011 14.5656C42.076 14.5656 45.7678 15.0875 49.1607 15.979C52.5536 16.8734 55.6503 18.1373 58.135 19.5959C58.6173 19.878 59.2209 19.878 59.7031 19.5959C62.1879 18.1373 65.2846 16.8734 68.6775 15.979C72.0703 15.0875 75.7622 14.5656 79.4371 14.5656C83.4166 14.5627 87.3707 15.1806 90.9412 16.5574C90.3151 16.7182 89.6777 16.8705 89.015 17.0173C85.7716 17.7226 82.2095 18.5182 78.6812 19.6664C76.0329 20.5297 73.3987 21.5877 70.9281 22.9673C69.0723 23.9999 67.3096 25.2159 65.7076 26.6604C63.3047 28.8243 61.2684 31.513 59.847 34.8449C59.4888 35.6856 59.1701 36.5659 58.8937 37.4856C58.4142 35.8888 57.8079 34.4161 57.0915 33.059C55.6362 30.3055 53.7268 28.0456 51.5495 26.1864C48.2751 23.399 44.4028 21.5115 40.4487 20.115C36.4945 18.7185 32.4473 17.81 28.7978 17.0173C28.1407 16.8734 27.5061 16.721 26.8885 16.563C30.459 15.1806 34.4159 14.5627 38.4011 14.5656ZM61.2318 59.3138C62.4276 60.7047 63.7701 62.3269 65.0251 63.746C65.6541 64.457 66.2604 65.1143 66.8245 65.6758C67.1714 66.0172 67.4986 66.3162 67.8144 66.5786C67.5324 67.5519 66.8837 69.5917 65.7584 72.0321C64.4131 74.955 62.3853 78.4421 59.5367 81.3451C59.3308 81.5567 59.1193 81.7627 58.905 81.9658C58.6906 81.7627 58.4791 81.5539 58.2732 81.3451C55.3739 78.3885 53.3235 74.828 51.981 71.8713C51.2111 70.1842 50.6696 68.6945 50.3227 67.6337C50.1845 67.2077 50.0773 66.8551 49.9983 66.5814C50.1901 66.4234 50.3875 66.2485 50.5906 66.0567C51.3154 65.3767 52.1221 64.5021 52.9653 63.5429C54.2289 62.1069 55.5685 60.4818 56.7502 59.1191C57.3397 58.4364 57.8897 57.8185 58.3607 57.3305C58.5609 57.1217 58.7414 56.9439 58.9078 56.7859C58.9783 56.8537 59.0545 56.927 59.1306 57.0032C59.7031 57.5703 60.4364 58.3913 61.2318 59.3138ZM110.717 72.9377C109.753 74.749 108.597 76.4446 107.246 77.9935C106.969 78.3094 106.684 78.617 106.391 78.9188C106.23 79.0881 106.064 79.2574 105.895 79.421C105.754 79.5593 105.61 79.6975 105.463 79.8329C104.899 80.3605 104.307 80.8655 103.684 81.3451C102.265 82.4454 100.694 83.4188 98.9623 84.2426C97.1488 85.1059 95.4058 85.7125 93.7249 86.1244C93.677 86.1357 93.6262 86.1469 93.5783 86.1582C93.5303 86.1695 93.4796 86.1808 93.4316 86.1921C91.3558 86.6745 89.3731 86.8579 87.4497 86.8607C84.085 86.8607 80.9093 86.2796 77.8549 85.6758C74.8004 85.0749 71.8701 84.4373 68.9595 84.4316C66.9796 84.4316 64.9941 84.742 63.0819 85.6081C61.6238 86.2683 60.2277 87.2444 58.905 88.5761C57.5851 87.2444 56.189 86.2683 54.7309 85.6081C53.7748 85.1764 52.7989 84.8802 51.8146 84.694C50.8332 84.5078 49.8432 84.4316 48.8505 84.4316C45.9399 84.4373 43.0124 85.0749 39.9579 85.6758C36.9035 86.2796 33.7278 86.8607 30.3631 86.8607C28.544 86.8579 26.6685 86.6943 24.7168 86.2683C24.6717 86.2598 24.6237 86.2485 24.5786 86.2372C24.5335 86.2288 24.4883 86.2175 24.4432 86.2062C22.6495 85.7971 20.7937 85.1651 18.8505 84.2426C17.367 83.5344 15.9991 82.7191 14.7441 81.805C13.9628 81.2408 13.2239 80.637 12.5273 79.9994C12.3186 79.8104 12.1155 79.6157 11.9153 79.421C11.8053 79.3138 11.6981 79.2066 11.5937 79.0966C11.2948 78.7975 11.0099 78.49 10.7307 78.1768C8.40675 75.5672 6.6525 72.5258 5.43411 69.225C4.0183 65.388 3.33577 61.2012 3.33577 56.9947C3.33577 52.7882 3.97317 48.8525 5.18592 45.0494C6.67788 40.3633 9.04979 36.2358 11.0466 33.3017C12.045 31.8346 12.9503 30.6638 13.599 29.8653C13.6893 29.7553 13.771 29.6537 13.85 29.5578C15.8045 30.6384 17.931 31.5581 20.1676 32.3481C23.5153 33.5302 27.1 34.4302 30.6762 35.1524C31.3615 35.2907 32.0328 34.8449 32.171 34.1565C32.3092 33.4709 31.8635 32.8023 31.1782 32.6612C28.0702 32.0349 24.9791 31.2732 22.0854 30.3196C19.1946 29.366 16.504 28.2205 14.1969 26.8353C11.8871 25.45 9.9664 23.8335 8.57315 21.9488C7.75525 20.8373 7.11785 19.6354 6.67788 18.315C7.27861 18.6536 7.98088 19.0119 8.78468 19.3646C9.3431 19.61 10.0002 19.421 10.3443 18.9188C10.6856 18.4166 10.6235 17.7423 10.1977 17.3107H10.1948C10.161 17.274 9.33182 16.405 8.51674 14.732C7.70166 13.059 6.89505 10.5847 6.89505 7.28386C6.89505 6.95659 6.90351 6.62368 6.92043 6.28231C8.49418 8.77349 10.4853 11.0446 13.0575 13.011C16.7888 15.869 21.7047 18.0724 28.2563 19.4972C31.4884 20.1997 34.9631 20.9811 38.3419 22.0814C40.8774 22.9053 43.3564 23.9096 45.6381 25.1848C47.35 26.1413 48.9492 27.2472 50.3875 28.545C52.5423 30.4917 54.336 32.8615 55.6052 35.8408C56.8743 38.8201 57.6217 42.4172 57.6245 46.8268V55.2822C57.5174 55.3838 57.4074 55.4853 57.2946 55.5982C56.6459 56.2386 55.8929 57.085 55.0834 58.0273C53.8707 59.4351 52.531 61.0545 51.307 62.437C50.695 63.1282 50.114 63.7601 49.5978 64.2708C49.0845 64.7814 48.6277 65.1736 48.3343 65.3626C47.979 65.5911 47.8098 66.0143 47.9113 66.4234C47.9197 66.4657 48.5741 69.1544 50.1845 72.6923C51.3972 75.3499 53.1515 78.4928 55.6024 81.3451C56.3667 82.2367 57.2015 83.0972 58.1068 83.9097C58.2901 84.1523 58.5778 84.3047 58.8937 84.3047H58.9191C59.235 84.3047 59.5226 84.1523 59.706 83.9097C60.6113 83.0972 61.4433 82.2367 62.2076 81.3451C64.6613 78.4928 66.4156 75.3499 67.6283 72.6923C69.2387 69.1544 69.8902 66.4657 69.9015 66.4234C70.0002 66.0143 69.831 65.5911 69.4784 65.3626C69.2556 65.2187 68.9341 64.9564 68.5703 64.615C67.9301 64.0169 67.1517 63.1733 66.3281 62.2395C65.0928 60.8345 63.756 59.2151 62.5545 57.827C61.9538 57.1301 61.3869 56.4925 60.8764 55.9593C60.6254 55.6998 60.3885 55.4656 60.1628 55.2596V46.8268C60.1628 41.6018 61.212 37.5166 62.9409 34.2468C64.2411 31.7979 65.9276 29.7948 67.8934 28.119C70.8407 25.608 74.4281 23.8391 78.2018 22.5103C81.9726 21.1786 85.9182 20.2871 89.5536 19.4972C96.1081 18.0724 101.024 15.869 104.755 13.011C107.325 11.0446 109.319 8.77349 110.892 6.28231C110.906 6.62368 110.918 6.95659 110.918 7.28386C110.915 10.692 110.058 13.217 109.217 14.89C108.797 15.7279 108.379 16.3486 108.075 16.7521C107.925 16.9552 107.801 17.1019 107.719 17.195C107.68 17.2401 107.649 17.274 107.632 17.2909L107.615 17.3078C107.373 17.5561 107.248 17.8777 107.248 18.205C107.248 18.4533 107.322 18.7016 107.468 18.9188C107.813 19.421 108.47 19.61 109.025 19.3646C109.832 19.0119 110.534 18.6536 111.135 18.315C110.692 19.6354 110.058 20.8373 109.24 21.9488C108.193 23.3623 106.854 24.6262 105.271 25.7519C102.902 27.4447 99.9945 28.8271 96.7991 29.9528C93.6065 31.0813 90.1318 31.9559 86.6346 32.6612C85.9464 32.8023 85.5036 33.4709 85.6418 34.1565C85.78 34.8449 86.4513 35.2907 87.1366 35.1524C90.1177 34.5487 93.1073 33.8236 95.9586 32.9151C98.81 32.0039 101.529 30.9064 103.971 29.5578C104.611 30.3196 105.68 31.6625 106.89 33.4568C108.836 36.343 111.143 40.3972 112.627 45.0494C113.84 48.8525 114.477 52.9321 114.477 56.9947C114.477 62.6062 113.259 68.1726 110.717 72.9377Z" fill="#4C281A" style="fill:#4C281A;fill:color(display-p3 0.2980 0.1569 0.1020);fill-opacity:1;"/>
<path d="M90.9415 16.5575C90.3153 16.7183 89.6779 16.8707 89.0152 17.0174C85.7718 17.7227 82.2097 18.5183 78.6814 19.6665C76.0331 20.5299 73.3989 21.5878 70.9283 22.9674C69.0725 24 67.3098 25.216 65.7079 26.6605C63.3049 28.8244 61.2686 31.5131 59.8472 34.845C59.489 35.6857 59.1703 36.566 58.8939 37.4857C58.4145 35.8889 57.8081 34.4162 57.0917 33.0591C55.6364 30.3056 53.727 28.0457 51.5497 26.1865C48.2753 23.3991 44.403 21.5117 40.4489 20.1151C36.4948 18.7186 32.4476 17.8102 28.798 17.0174C28.1409 16.8735 27.5063 16.7211 26.8887 16.5631C30.4592 15.1807 34.4162 14.5629 38.4013 14.5657C42.0762 14.5657 45.768 15.0876 49.1609 15.9791C52.5538 16.8735 55.6505 18.1374 58.1352 19.596C58.6175 19.8781 59.2211 19.8781 59.7034 19.596C62.1881 18.1374 65.2848 16.8735 68.6777 15.9791C72.0705 15.0876 75.7624 14.5657 79.4373 14.5657C83.4168 14.5629 87.3709 15.1807 90.9415 16.5575Z" fill="#70242E" style="fill:#70242E;fill:color(display-p3 0.4392 0.1412 0.1804);fill-opacity:1;"/>
<path d="M57.6244 46.8268V55.2821C57.5172 55.3837 57.4072 55.4853 57.2944 55.5981C56.6457 56.2385 55.8927 57.0849 55.0833 58.0272C54.1215 59.1416 53.0836 60.3914 52.0824 61.5482C53.5546 58.6959 54.5925 55.2567 54.4346 51.843C54.1272 45.2497 49.6795 38.6705 41.6246 35.4852C39.2978 34.5655 36.8103 34.131 34.3086 34.0746C33.7079 34.0605 32.9972 34.0238 32.1934 33.9392C32.2131 33.3354 31.7901 32.7881 31.178 32.6611C28.07 32.0348 24.9789 31.2731 22.0853 30.3195C19.1944 29.3659 16.5038 28.2205 14.1968 26.8352C11.8869 25.45 9.96625 23.8334 8.573 21.9488C7.75511 20.8372 7.11771 19.6353 6.67773 18.315C7.27847 18.6535 7.98073 19.0118 8.78453 19.3645C9.34296 19.6099 10.0001 19.4209 10.3442 18.9187C10.6854 18.4165 10.6234 17.7422 10.1975 17.3106H10.1947C10.1609 17.2739 9.33168 16.405 8.5166 14.7319C7.70152 13.0589 6.8949 10.5847 6.8949 7.28378C6.8949 6.95651 6.90336 6.6236 6.92028 6.28223C8.49403 8.77341 10.4852 11.0445 13.0573 13.011C16.7887 15.8689 21.7045 18.0723 28.2562 19.4971C31.4883 20.1996 34.9629 20.9811 38.3417 22.0814C40.8772 22.9052 43.3563 23.9096 45.6379 25.1848C47.3499 26.1412 48.949 27.2471 50.3874 28.5449C52.5421 30.4916 54.3359 32.8615 55.605 35.8407C56.8742 38.82 57.6216 42.4171 57.6244 46.8268Z" fill="#D78137" style="fill:#D78137;fill:color(display-p3 0.8431 0.5059 0.2157);fill-opacity:1;"/>
<path d="M111.134 18.315C110.691 19.6353 110.057 20.8372 109.239 21.9488C108.193 23.3622 106.853 24.6262 105.271 25.7518C102.902 27.4446 99.9938 28.827 96.7984 29.9527C93.6057 31.0812 90.1311 31.9558 86.6338 32.6611C85.9823 32.7937 85.5508 33.4003 85.6242 34.0464C85.0347 34.1282 84.4199 34.1564 83.8445 34.1564C80.6096 34.1621 77.4 34.8166 74.4923 36.2301C67.5091 39.6241 63.6622 45.7293 63.3773 51.843C63.2165 55.2567 64.2572 58.6959 65.7266 61.5482C64.6662 60.3209 63.5634 58.9921 62.5538 57.8269C61.953 57.1301 61.3861 56.4924 60.8757 55.9592C60.6246 55.6997 60.3877 55.4655 60.1621 55.2596V46.8268C60.1621 41.6018 61.2113 37.5166 62.9401 34.2467C64.2403 31.7978 65.9269 29.7947 67.8927 28.1189C70.8399 25.608 74.4274 23.839 78.201 22.5102C81.9718 21.1786 85.9175 20.287 89.5529 19.4971C96.1074 18.0723 101.023 15.8689 104.755 13.011C107.324 11.0445 109.318 8.77341 110.892 6.28223C110.906 6.6236 110.917 6.95651 110.917 7.28378C110.914 10.6919 110.057 13.2169 109.216 14.8899C108.796 15.7279 108.379 16.3485 108.074 16.752C107.925 16.9551 107.801 17.1018 107.719 17.1949C107.679 17.2401 107.648 17.2739 107.631 17.2908L107.614 17.3078C107.372 17.556 107.248 17.8777 107.248 18.2049C107.248 18.4532 107.321 18.7015 107.468 18.9187C107.812 19.4209 108.469 19.6099 109.025 19.3645C109.831 19.0118 110.533 18.6535 111.134 18.315Z" fill="#D78137" style="fill:#D78137;fill:color(display-p3 0.8431 0.5059 0.2157);fill-opacity:1;"/>
<path d="M114.477 56.9948C114.477 62.6063 113.259 68.1726 110.718 72.9378C109.446 75.3218 107.847 77.5111 105.895 79.4211C103.946 81.3311 101.647 82.9646 98.9625 84.2426C94.794 86.2232 91.0147 86.8579 87.4498 86.8608C84.0852 86.8608 80.9094 86.2796 77.855 85.6758C74.8006 85.0749 71.8702 84.4373 68.9597 84.4317C66.9798 84.4317 64.9943 84.742 63.0821 85.6081C61.6239 86.2683 60.2279 87.2445 58.9051 88.5761C57.5852 87.2445 56.1892 86.2683 54.731 85.6081C53.7749 85.1765 52.7991 84.8802 51.8148 84.694C50.8333 84.5078 49.8434 84.4317 48.8506 84.4317C45.94 84.4373 43.0125 85.0749 39.9581 85.6758C36.9037 86.2796 33.7279 86.8608 30.3633 86.8608C26.7955 86.8579 23.0163 86.2232 18.8506 84.2426C16.1657 82.9646 13.8671 81.3311 11.9154 79.4211C8.99354 76.5547 6.85008 73.0647 5.43427 69.225C4.01846 65.3881 3.33594 61.2013 3.33594 56.9948C3.33594 52.7882 3.97334 48.8526 5.18608 45.0495C6.67804 40.3633 9.04995 36.2358 11.0468 33.3017C12.0452 31.8346 12.9505 30.6638 13.5992 29.8654C13.6894 29.7553 13.7712 29.6538 13.8502 29.5579C14.6935 30.0234 15.5706 30.4607 16.4759 30.8669C16.7354 30.9882 17.0005 31.1039 17.2656 31.2168C17.4941 31.3183 17.7253 31.4143 17.9566 31.5074C18.3035 31.6484 18.6532 31.7867 19.0086 31.9221C19.2398 32.0124 19.4739 32.097 19.708 32.1816C19.8603 32.2381 20.0126 32.2945 20.1677 32.3481C23.5155 33.5302 27.1001 34.4302 30.6763 35.1524C31.3617 35.2907 32.0329 34.8449 32.1711 34.1565C32.1768 34.1199 32.1824 34.0832 32.188 34.0465C32.1909 34.0098 32.1937 33.976 32.1937 33.9393C32.9975 34.0239 33.7082 34.0606 34.3089 34.0747C36.8106 34.1311 39.2981 34.5656 41.6249 35.4854C49.6798 38.6706 54.1275 45.2498 54.4349 51.8431C54.5928 55.2568 53.555 58.696 52.0827 61.5483C51.953 61.7006 51.8204 61.8502 51.6907 61.9997C51.5638 62.1464 51.4341 62.2931 51.3071 62.437C50.6951 63.1282 50.1141 63.7602 49.598 64.2708C49.0847 64.7815 48.6278 65.1736 48.3345 65.3627C47.9791 65.5912 47.8099 66.0144 47.9114 66.4235C47.9143 66.4376 47.982 66.7169 48.123 67.205C48.1484 67.2952 48.1794 67.3912 48.2104 67.4927C48.3486 67.9526 48.5376 68.5422 48.7829 69.2334C48.8055 69.2927 48.8252 69.3548 48.8506 69.4168C48.8788 69.5015 48.9127 69.5889 48.9465 69.6792C49.127 70.1758 49.3385 70.7146 49.5754 71.2873C49.6347 71.4369 49.6995 71.5892 49.7672 71.7444C49.8321 71.8967 49.8998 72.0547 49.9703 72.2127C50.038 72.3707 50.1113 72.5315 50.1846 72.6923C50.2269 72.7882 50.2721 72.8814 50.3172 72.9801C51.9135 76.4108 54.4011 80.5919 58.107 83.9097C58.2903 84.1523 58.578 84.3047 58.8939 84.3047H58.9192C59.2351 84.3047 59.5228 84.1523 59.7061 83.9097C63.412 80.5919 65.8996 76.4108 67.4959 72.9801C67.541 72.8814 67.5862 72.7882 67.6285 72.6923C67.6792 72.5823 67.73 72.4723 67.7779 72.3622C67.8259 72.255 67.8738 72.145 67.919 72.0406C67.9979 71.8629 68.0713 71.6908 68.1418 71.5187C68.201 71.3776 68.2602 71.2394 68.3138 71.1039C68.3984 70.9008 68.4774 70.7033 68.5507 70.5115C68.6184 70.3366 68.6833 70.1673 68.7481 70.0037C68.8497 69.7356 68.9427 69.4789 69.0302 69.2334C69.0668 69.1262 69.1035 69.0219 69.1402 68.9203C69.222 68.6805 69.2981 68.4548 69.3658 68.246C69.456 67.9667 69.535 67.7128 69.6027 67.4927C69.6337 67.3912 69.6619 67.2924 69.6873 67.205C69.7042 67.1485 69.7212 67.0949 69.7353 67.0441C69.7381 67.03 69.7437 67.0159 69.7465 67.0018C69.7578 66.9595 69.7691 66.9172 69.7804 66.8777C69.8086 66.7818 69.8311 66.6971 69.8481 66.6294C69.8594 66.5843 69.8706 66.5448 69.8791 66.5137C69.8791 66.5081 69.8791 66.5053 69.8819 66.5024C69.8847 66.494 69.8847 66.4883 69.8876 66.4799C69.896 66.446 69.9016 66.4263 69.9016 66.4235C70.0004 66.0144 69.8311 65.5912 69.4786 65.3627C69.2558 65.2188 68.9343 64.9564 68.5705 64.615C67.9302 64.0169 67.1518 63.1733 66.3283 62.2395C66.1309 62.0166 65.9363 61.7909 65.7332 61.5568C65.7332 61.5568 65.7304 61.5511 65.7304 61.5483C64.261 58.696 63.2203 55.2568 63.381 51.8431C63.6659 45.7294 67.5128 39.6242 74.496 36.2302C77.4038 34.8167 80.6133 34.1622 83.8482 34.1565C84.4236 34.1565 85.0384 34.1283 85.6279 34.0465C85.6307 34.0832 85.6363 34.1199 85.6448 34.1565C85.783 34.8449 86.4542 35.2907 87.1396 35.1524C90.1207 34.5487 93.1103 33.8236 95.9616 32.9152C96.6864 32.6838 97.4028 32.4384 98.1079 32.1816C98.4548 32.0547 98.7961 31.9277 99.1373 31.7951C99.3094 31.7274 99.4814 31.6597 99.6506 31.592C99.7493 31.5525 99.8452 31.513 99.9411 31.4707C99.9834 31.4566 100.023 31.4396 100.065 31.4199C100.229 31.355 100.392 31.2873 100.553 31.2168C100.818 31.1067 101.081 30.9911 101.343 30.8698C102.248 30.4635 103.128 30.0262 103.974 29.5579C104.614 30.3196 105.683 31.6625 106.893 33.4569C108.839 36.343 111.146 40.3972 112.63 45.0495C113.843 48.8526 114.48 52.9321 114.48 56.9948H114.477Z" fill="#DB7F37" style="fill:#DB7F37;fill:color(display-p3 0.8588 0.4980 0.2157);fill-opacity:1;"/>
<path d="M50.3168 72.9801C47.4739 75.4431 37.1035 83.1113 23.9748 77.1528C7.44198 69.6482 4.6019 48.5563 16.4755 30.8669C17.5191 31.3437 18.5993 31.781 19.7076 32.1817C9.18777 47.6253 11.6076 66.1301 26.0675 72.6952C37.2022 77.7481 46.0581 71.53 48.7826 69.2335C49.1323 70.2124 49.5948 71.3974 50.1843 72.6923C50.2266 72.7883 50.2717 72.8814 50.3168 72.9801Z" fill="#DBAB85" style="fill:#DBAB85;fill:color(display-p3 0.8588 0.6706 0.5216);fill-opacity:1;"/>
<path d="M93.8381 77.1526C80.7094 83.1112 70.339 75.443 67.4961 72.98C67.5412 72.8812 67.5863 72.7881 67.6287 72.6922C68.2209 71.3972 68.6806 70.2123 69.0304 69.2333C71.7548 71.5298 80.6107 77.7479 91.7454 72.695C106.205 66.1299 108.625 47.6252 98.1053 32.1815C99.2137 31.7781 100.294 31.3436 101.34 30.8696C113.208 48.559 110.371 69.6509 93.8381 77.1526Z" fill="#DBAB85" style="fill:#DBAB85;fill:color(display-p3 0.8588 0.6706 0.5216);fill-opacity:1;"/>
<path d="M91.7448 72.6951C80.6101 77.7481 71.7542 71.53 69.0298 69.2334C69.0664 69.1262 69.1031 69.0218 69.1398 68.9203C69.2216 68.6805 69.2977 68.4548 69.3654 68.246C69.4585 67.9667 69.5346 67.7128 69.6023 67.4927C69.6333 67.3912 69.6615 67.2924 69.6869 67.2049C69.7038 67.1485 69.7208 67.0949 69.7349 67.0441C69.7377 67.03 69.7433 67.0159 69.7461 67.0018C69.7574 66.9595 69.7687 66.9172 69.78 66.8777C69.8082 66.7818 69.8308 66.6971 69.8477 66.6294C69.859 66.5843 69.8702 66.5448 69.8787 66.5137C69.8787 66.5081 69.8787 66.5053 69.8815 66.5024C69.8843 66.494 69.8843 66.4883 69.8872 66.4799C69.8956 66.446 69.9013 66.4263 69.9013 66.4235C70 66.0144 69.8307 65.5912 69.4782 65.3627C69.2554 65.2188 68.9339 64.9564 68.5701 64.615C67.9298 64.0169 67.1514 63.1733 66.3279 62.2395C66.1305 62.0166 65.9359 61.7909 65.7328 61.5568C65.7328 61.5568 65.73 61.5511 65.73 61.5483C64.2606 58.696 63.2199 55.2568 63.3806 51.8431C63.6655 45.7294 67.5124 39.6242 74.4956 36.2302C77.4034 34.8167 80.6129 34.1622 83.8479 34.1565C84.4232 34.1565 85.038 34.1283 85.6275 34.0465C85.6303 34.0832 85.6359 34.1199 85.6444 34.1565C85.7826 34.8449 86.4539 35.2907 87.1392 35.1524C90.1203 34.5487 93.1099 33.8236 95.9612 32.9152C96.6861 32.6838 97.4024 32.4384 98.1075 32.1816C108.627 47.6253 106.208 66.13 91.7476 72.6951H91.7448Z" fill="#E7C8A6" style="fill:#E7C8A6;fill:color(display-p3 0.9059 0.7843 0.6510);fill-opacity:1;"/>
<path d="M52.0823 61.5483C51.9526 61.7006 51.82 61.8502 51.6903 61.9997C51.5634 62.1464 51.4336 62.2931 51.3067 62.437C50.6947 63.1282 50.1137 63.7602 49.5976 64.2708C49.0843 64.7815 48.6274 65.1736 48.3341 65.3627C47.9787 65.5912 47.8095 66.0144 47.911 66.4235C47.9139 66.4376 47.9815 66.7169 48.1226 67.2049C48.1479 67.2952 48.179 67.3912 48.21 67.4927C48.3482 67.9526 48.5372 68.5422 48.7825 69.2334C46.0581 71.53 37.2022 77.7481 26.0675 72.6951C11.6076 66.13 9.18774 47.6253 19.7076 32.1816C19.8599 32.2381 20.0122 32.2945 20.1673 32.3481C23.5151 33.5302 27.0997 34.4302 30.6759 35.1524C31.3613 35.2907 32.0325 34.8449 32.1707 34.1565C32.1763 34.1199 32.182 34.0832 32.1876 34.0465C32.1904 34.0098 32.1933 33.976 32.1933 33.9393C32.9971 34.0239 33.7078 34.0606 34.3085 34.0747C36.8102 34.1311 39.2977 34.5656 41.6245 35.4854C49.6794 38.6706 54.1271 45.2498 54.4345 51.8431C54.5924 55.2568 53.5545 58.696 52.0823 61.5483Z" fill="#E7C8A6" style="fill:#E7C8A6;fill:color(display-p3 0.9059 0.7843 0.6510);fill-opacity:1;"/>
<path d="M67.6872 66.5785C67.4052 67.5519 66.7565 69.5917 65.6312 72.0321C64.19 75.1665 61.9619 78.947 58.7777 81.9658C55.5428 78.8962 53.2922 75.0367 51.8538 71.8712C51.0838 70.1841 50.5423 68.6945 50.1954 67.6337C50.0572 67.2077 49.9501 66.855 49.8711 66.5814C50.0629 66.4234 50.2603 66.2484 50.4634 66.0566C51.1882 65.3767 51.9948 64.5021 52.8381 63.5428C54.1016 62.1068 55.4413 60.4818 56.623 59.1191C57.2124 58.4363 57.7624 57.8185 58.2334 57.3304C58.4337 57.1216 58.6142 56.9439 58.7806 56.7859C58.8511 56.8536 58.9272 56.927 59.0034 57.0031C59.5759 57.5702 60.3092 58.3912 61.1045 59.3138C62.3003 60.7046 63.6428 62.3269 64.8979 63.746C65.5268 64.4569 66.1332 65.1143 66.6973 65.6757C67.0442 66.0171 67.3713 66.3162 67.6872 66.5785Z" fill="#DB7947" style="fill:#DB7947;fill:color(display-p3 0.8588 0.4745 0.2784);fill-opacity:1;"/>
<path d="M65.7494 67.1146C65.4054 68.1669 64.8667 69.6481 64.0939 71.3239C63.0334 73.6289 61.2933 76.7944 58.7776 79.5508C56.2195 76.7492 54.4624 73.5189 53.3935 71.1716C52.632 69.5042 52.1103 68.0456 51.8057 67.1146C52.4431 66.5024 53.182 65.7152 54.1099 64.6601C54.8347 63.8363 55.5821 62.9532 56.3069 62.0984C56.7977 61.5172 57.28 60.9473 57.7397 60.414C57.7933 60.352 57.8468 60.2899 57.9004 60.2278C58.2276 59.8498 58.5181 59.5197 58.7776 59.2319C58.9496 59.421 59.1329 59.6269 59.3303 59.8526V59.8583C59.4911 60.0332 59.6519 60.2222 59.8239 60.4197C60.2582 60.9275 60.7151 61.4664 61.1805 62.0165C61.9899 62.9701 62.8247 63.9576 63.6314 64.8688C64.3449 65.6757 64.9569 66.3331 65.5041 66.8748C65.5859 66.9594 65.6705 67.0384 65.7494 67.1146Z" fill="#F39C52" style="fill:#F39C52;fill:color(display-p3 0.9529 0.6118 0.3216);fill-opacity:1;"/>
<path d="M58.7914 69.5945C58.7914 69.5945 58.3542 64.3638 57.4969 63.0745C57.0936 62.4651 57.353 61.3846 57.7394 60.414C57.793 60.352 57.8466 60.2899 57.9002 60.2278C58.2273 59.8498 58.5178 59.5197 58.7773 59.2319C58.9493 59.421 59.1327 59.6269 59.3301 59.8526V59.8583C59.3301 59.8583 60.5513 64.3272 58.7914 69.5945Z" fill="#EDC3A0" style="fill:#EDC3A0;fill:color(display-p3 0.9294 0.7647 0.6275);fill-opacity:1;"/>
<path d="M79.0293 58.3715C83.6057 58.3715 87.3155 54.6604 87.3155 50.0826C87.3155 45.5048 83.6057 41.7937 79.0293 41.7937C74.453 41.7937 70.7432 45.5048 70.7432 50.0826C70.7432 54.6604 74.453 58.3715 79.0293 58.3715Z" fill="#DB7F37" style="fill:#DB7F37;fill:color(display-p3 0.8588 0.4980 0.2157);fill-opacity:1;"/>
<path d="M79.232 43.6218C75.5514 43.6218 72.5703 46.6039 72.5703 50.2857C72.5703 53.9674 75.5514 56.9495 79.232 56.9495C82.9125 56.9495 85.8936 53.9646 85.8936 50.2857C85.8936 46.6067 82.9097 43.6218 79.232 43.6218ZM78.5607 48.8694C77.2746 49.3913 75.8616 48.9004 75.4048 47.7719C74.9479 46.6462 75.6191 45.3089 76.9052 44.787C78.1913 44.2651 79.6042 44.756 80.064 45.8817C80.5209 47.0102 79.8468 48.3475 78.5607 48.8694Z" fill="#48261D" style="fill:#48261D;fill:color(display-p3 0.2824 0.1490 0.1137);fill-opacity:1;"/>
<path d="M78.561 48.8695C77.275 49.3914 75.862 48.9005 75.4051 47.772C74.9482 46.6463 75.6194 45.309 76.9055 44.7871C78.1916 44.2651 79.6046 44.756 80.0643 45.8817C80.5212 47.0102 79.8471 48.3475 78.561 48.8695Z" fill="white" style="fill:white;fill-opacity:1;"/>
<path d="M38.4532 58.3715C43.0295 58.3715 46.7393 54.6604 46.7393 50.0826C46.7393 45.5048 43.0295 41.7937 38.4532 41.7937C33.8768 41.7937 30.167 45.5048 30.167 50.0826C30.167 54.6604 33.8768 58.3715 38.4532 58.3715Z" fill="#DB7F37" style="fill:#DB7F37;fill:color(display-p3 0.8588 0.4980 0.2157);fill-opacity:1;"/>
<path d="M38.2525 43.6218C34.5719 43.6218 31.5908 46.6039 31.5908 50.2857C31.5908 53.9674 34.5719 56.9495 38.2525 56.9495C41.933 56.9495 44.9141 53.9646 44.9141 50.2857C44.9141 46.6067 41.9302 43.6218 38.2525 43.6218ZM42.0797 47.7719C41.62 48.9004 40.207 49.3913 38.9209 48.8694C37.6348 48.3475 36.9636 47.0102 37.4205 45.8817C37.8774 44.756 39.2904 44.2651 40.5764 44.787C41.8625 45.3089 42.5366 46.6462 42.0797 47.7719Z" fill="#48261D" style="fill:#48261D;fill:color(display-p3 0.2824 0.1490 0.1137);fill-opacity:1;"/>
<path d="M42.0799 47.772C41.6202 48.9005 40.2072 49.3914 38.9211 48.8695C37.6351 48.3475 36.9638 47.0102 37.4207 45.8817C37.8776 44.756 39.2906 44.2651 40.5767 44.7871C41.8627 45.309 42.5368 46.6463 42.0799 47.772Z" fill="white" style="fill:white;fill-opacity:1;"/>
<path d="M87.7267 42.5245C87.7267 42.6769 87.7239 42.8236 87.7154 42.9759C80.6279 40.0249 73.9127 41.7853 70.6664 43.0239C70.6552 42.8574 70.6523 42.691 70.6523 42.5245C70.6523 38.1233 73.9775 34.5008 78.2532 34.0353C78.2786 34.0325 78.3039 34.0268 78.3293 34.0268C78.4675 34.0127 78.6085 34.0014 78.7495 33.993C78.8934 33.9845 79.0429 33.9817 79.1867 33.9817H79.2036C79.3418 33.9817 79.4828 33.9845 79.6182 33.993C79.6295 33.993 79.6436 33.993 79.6549 33.9958C79.7874 33.9986 79.9256 34.0099 80.061 34.024C84.3648 34.4613 87.7267 38.0979 87.7267 42.5217V42.5245Z" fill="#E7C8A6" style="fill:#E7C8A6;fill:color(display-p3 0.9059 0.7843 0.6510);fill-opacity:1;"/>
<path d="M87.5492 59.39C87.0218 63.5401 83.4794 66.7507 79.1897 66.7507C74.8999 66.7507 71.3689 63.5542 70.833 59.4126C72.8552 59.2631 80.4419 58.7834 87.5492 59.39Z" fill="#E7C8A6" style="fill:#E7C8A6;fill:color(display-p3 0.9059 0.7843 0.6510);fill-opacity:1;"/>
<path d="M46.922 42.5245C46.922 42.6769 46.9192 42.8236 46.9107 42.9759C39.8232 40.0249 33.108 41.7853 29.8618 43.0239C29.8505 42.8574 29.8477 42.691 29.8477 42.5245C29.8477 38.1233 33.1728 34.5008 37.4485 34.0353C37.4739 34.0325 37.4992 34.0268 37.5246 34.0268C37.6628 34.0127 37.8038 34.0014 37.9449 33.993C38.0887 33.9845 38.2382 33.9817 38.382 33.9817H38.3989C38.5371 33.9817 38.6781 33.9845 38.8135 33.993C38.8248 33.993 38.8389 33.993 38.8502 33.9958C38.9827 33.9986 39.1209 34.0099 39.2563 34.024C43.5602 34.4613 46.922 38.0979 46.922 42.5217V42.5245Z" fill="#E7C8A6" style="fill:#E7C8A6;fill:color(display-p3 0.9059 0.7843 0.6510);fill-opacity:1;"/>
<path d="M46.7445 59.39C46.2171 63.5401 42.6747 66.7507 38.385 66.7507C34.0953 66.7507 30.5642 63.5514 30.0283 59.4126C32.0505 59.2631 39.6372 58.7834 46.7445 59.39Z" fill="#E7C8A6" style="fill:#E7C8A6;fill:color(display-p3 0.9059 0.7843 0.6510);fill-opacity:1;"/>
<path d="M116.771 39.8978C116.271 39.3984 115.58 39.1135 114.875 39.1135H102.412C101.817 39.1135 101.233 39.3138 100.762 39.6806L99.575 40.6059C99.4622 40.369 99.3409 40.1348 99.2112 39.9006C99.3042 39.8442 99.3973 39.7878 99.496 39.7257C100.534 39.0683 101.834 38.095 102.897 36.7182C103.289 36.2104 103.326 35.5192 102.996 34.969C102.663 34.4189 102.034 34.1339 101.403 34.244C100.568 34.3907 99.6032 34.5035 98.7007 34.5007C98.2946 34.5007 97.9025 34.4781 97.5443 34.4302C95.7168 34.1904 93.6889 33.6543 91.4863 33.1578C89.2836 32.6641 86.9004 32.2126 84.3339 32.2126C82.323 32.2126 80.1992 32.4948 78.005 33.2452C76.5779 33.7333 75.1226 34.4245 73.6448 35.3443C73.3289 35.5361 73.0158 35.7336 72.7141 35.9424C72.5166 36.0778 72.3277 36.2217 72.1359 36.3627C72.1246 36.3712 72.1105 36.3797 72.0992 36.391C71.8821 36.5518 71.6649 36.7154 71.4562 36.8819C71.3885 36.9326 71.3236 36.9806 71.256 37.0342L71.2616 37.0398C69.2309 38.6818 67.6092 40.5608 66.4416 42.5949C65.886 43.5655 65.4319 44.5698 65.085 45.5968C61.7401 45.4557 58.8126 45.4501 58.79 45.4501H58.7759C58.7534 45.4501 55.8259 45.4585 52.4809 45.5968C52.134 44.5698 51.6828 43.5655 51.1243 42.5949C49.9567 40.5608 48.335 38.6818 46.3044 37.0398L46.31 37.0342C46.2423 36.9806 46.1775 36.9326 46.1098 36.8819C45.9011 36.7154 45.6839 36.5518 45.4667 36.391C45.4555 36.3825 45.4414 36.374 45.4301 36.3656C45.2383 36.2245 45.0493 36.0806 44.8519 35.9452C44.5473 35.7364 44.2371 35.5389 43.9212 35.3471C42.4461 34.4245 40.9909 33.7361 39.5609 33.2481C37.3667 32.4976 35.243 32.2155 33.2321 32.2155C30.6656 32.2155 28.2824 32.6669 26.0797 33.1606C23.877 33.6571 21.8492 34.1932 20.0216 34.433C19.6634 34.481 19.2686 34.5035 18.8653 34.5035C17.9628 34.5035 16.9982 34.3935 16.1634 34.2468C15.5316 34.1368 14.8999 34.4217 14.5699 34.9719C14.2371 35.522 14.2766 36.2132 14.6686 36.721C15.7319 38.0978 17.032 39.0712 18.0699 39.7285C18.1658 39.7906 18.2617 39.847 18.3548 39.9034C18.2279 40.1348 18.1066 40.3718 17.991 40.6088L16.8036 39.6834C16.3326 39.3166 15.7516 39.1163 15.1537 39.1163H2.67933C1.97424 39.1163 1.28326 39.4013 0.784055 39.9006C0.284855 40.4 0 41.0912 0 41.7965V44.2143C0 44.9197 0.284855 45.6109 0.784055 46.1102C1.28326 46.6096 1.97424 46.8946 2.67933 46.8946H6.19911C6.9465 46.8946 7.64877 46.5899 8.15925 46.0425L9.62019 44.4767H14.223L16.5272 46.2739C16.5046 46.6209 16.4934 46.9707 16.4934 47.3177C16.4934 50.3873 17.3225 53.4625 18.7891 56.2471C20.2557 59.0289 22.3625 61.5257 24.9657 63.4244C28.3585 65.8987 32.2309 67.061 35.9904 67.061C38.8389 67.061 41.6226 66.398 44.1102 65.1426C46.5949 63.8871 48.7835 62.0307 50.408 59.6552C52.2694 56.9411 53.234 53.9393 53.3016 50.9375C54.5257 50.8923 55.6792 50.8613 56.6071 50.8443C57.2699 50.8331 57.817 50.8246 58.2006 50.8218C58.3924 50.8218 58.5418 50.819 58.6406 50.819C58.6913 50.819 58.728 50.819 58.7534 50.819H58.7816H58.8098C59.1285 50.819 61.506 50.8331 64.2615 50.9375C64.332 53.9393 65.2966 56.9411 67.1552 59.6552C68.7797 62.0307 70.9683 63.8871 73.453 65.1426C75.9377 66.398 78.7242 67.061 81.5728 67.061C85.3323 67.061 89.2046 65.9015 92.5975 63.4244C95.2006 61.5257 97.3074 59.0289 98.774 56.2471C100.238 53.4653 101.067 50.3901 101.07 47.3177C101.07 46.9707 101.058 46.6209 101.036 46.2739L103.34 44.4767H107.943L109.404 46.0425C109.912 46.587 110.617 46.8946 111.364 46.8946H114.884C115.589 46.8946 116.28 46.6096 116.779 46.1102C117.278 45.6109 117.563 44.9197 117.563 44.2143V41.7965C117.563 41.0912 117.278 40.4 116.779 39.9006L116.771 39.8978ZM47.8415 57.8975C46.5244 59.8245 44.7475 61.3338 42.7056 62.3664C40.6609 63.399 38.351 63.952 35.9847 63.952C32.8598 63.952 29.6474 62.9956 26.7876 60.9107C24.5877 59.3082 22.7799 57.1668 21.5277 54.7941C20.2754 52.4214 19.5901 49.8202 19.5901 47.3121C19.5901 46.082 19.7537 44.8717 20.0949 43.715C20.4334 42.5554 20.9495 41.4495 21.6602 40.4113C22.825 38.71 24.427 37.4659 26.3251 36.6279C28.2203 35.79 30.4117 35.3753 32.6624 35.3753C34.5069 35.3753 36.3881 35.6518 38.1705 36.185C39.6314 36.6195 41.0219 37.2289 42.2741 37.985C42.903 38.38 43.5461 38.8285 44.1976 39.3364C46.0252 40.7865 47.4382 42.42 48.4253 44.1438C49.607 46.2062 50.1964 48.3927 50.1964 50.5763C50.1964 53.0562 49.4406 55.5502 47.8386 57.8975H47.8415ZM96.0242 54.797C94.7748 57.1725 92.9641 59.311 90.7642 60.9135C87.9072 62.9956 84.6921 63.952 81.5671 63.9548C79.2008 63.9548 76.891 63.4018 74.8462 62.3693C72.8015 61.3367 71.0275 59.8245 69.7104 57.9004C68.1056 55.5531 67.3526 53.059 67.3526 50.5791C67.3526 48.3927 67.942 46.209 69.1238 44.1466C70.1137 42.4228 71.5239 40.7893 73.3515 39.3392C74.0058 38.8314 74.646 38.3828 75.2749 37.9878C76.5272 37.2317 77.9176 36.6251 79.3785 36.1878C81.161 35.6546 83.0422 35.3781 84.8867 35.3781C87.1373 35.3781 89.3287 35.7928 91.224 36.6308C93.1221 37.4687 94.724 38.7157 95.8888 40.4141C96.5995 41.4523 97.1128 42.5611 97.4541 43.7178C97.7925 44.8745 97.9561 46.0849 97.9589 47.3149C97.9589 49.8202 97.2736 52.4214 96.0214 54.797H96.0242Z" fill="#382D3B" style="fill:#382D3B;fill:color(display-p3 0.2196 0.1765 0.2314);fill-opacity:1;"/>
</svg>
