{"accessors" : [{"bufferView" : 0, "byteOffset" : 0, "componentType" : 5123, "count" : 834, "type" : "SCALAR", "max" : [138], "min" : [0]}, {"bufferView" : 1, "byteOffset" : 0, "componentType" : 5126, "count" : 139, "type" : "VEC3", "max" : [0.0011624754406511784, 2.251991033554077, -0.5208929181098938], "min" : [-0.04662346839904785, 2.158620834350586, -0.6265537142753601], "name" : "POSITION"}, {"bufferView" : 0, "byteOffset" : 1668, "componentType" : 5123, "count" : 1416, "type" : "SCALAR", "max" : [233], "min" : [0]}, {"bufferView" : 2, "byteOffset" : 0, "componentType" : 5126, "count" : 234, "type" : "VEC3", "max" : [0.0033142429310828447, 2.7855405807495117, -0.16993598639965057], "min" : [-0.05414779111742973, 1.922419548034668, -0.7856990098953247], "name" : "POSITION"}, {"bufferView" : 0, "byteOffset" : 4500, "componentType" : 5123, "count" : 9024, "type" : "SCALAR", "max" : [1505], "min" : [0]}, {"bufferView" : 3, "byteOffset" : 0, "componentType" : 5126, "count" : 1506, "type" : "VEC3", "max" : [2.315645217895508, 4.597301483154297, 2.0700535774230957], "min" : [-2.315645217895508, 1.0042248964309692, -0.8540157675743103], "name" : "POSITION"}, {"bufferView" : 0, "byteOffset" : 22548, "componentType" : 5123, "count" : 96, "type" : "SCALAR", "max" : [17], "min" : [0]}, {"bufferView" : 4, "byteOffset" : 0, "componentType" : 5126, "count" : 18, "type" : "VEC3", "max" : [-0.1371939480304718, 2.3461403846740723, 0.03751601278781891], "min" : [-0.1622391790151596, 2.265205144882202, -0.03751601278781891], "name" : "POSITION"}, {"bufferView" : 0, "byteOffset" : 22740, "componentType" : 5123, "count" : 3660, "type" : "SCALAR", "max" : [611], "min" : [0]}, {"bufferView" : 5, "byteOffset" : 0, "componentType" : 5126, "count" : 612, "type" : "VEC3", "max" : [0.038039155304431915, 2.0588490962982178, -0.1348644644021988], "min" : [-0.043368976563215256, 1.9998868703842163, -0.2013394832611084], "name" : "POSITION"}, {"bufferView" : 0, "byteOffset" : 30060, "componentType" : 5123, "count" : 96, "type" : "SCALAR", "max" : [17], "min" : [0]}, {"bufferView" : 6, "byteOffset" : 0, "componentType" : 5126, "count" : 18, "type" : "VEC3", "max" : [-0.016664128750562668, 2.0622894763946533, -0.13580478727817535], "min" : [-0.03710103780031204, 1.9964463710784912, -0.1976059228181839], "name" : "POSITION"}, {"bufferView" : 0, "byteOffset" : 30252, "componentType" : 5123, "count" : 3660, "type" : "SCALAR", "max" : [611], "min" : [0]}, {"bufferView" : 7, "byteOffset" : 0, "componentType" : 5126, "count" : 612, "type" : "VEC3", "max" : [0.16391396522521973, 2.345287561416626, 0.039121344685554504], "min" : [-0.17226189374923706, 2.2660579681396484, -0.039121344685554504], "name" : "POSITION"}, {"bufferView" : 0, "byteOffset" : 37572, "componentType" : 5123, "count" : 2160, "type" : "SCALAR", "max" : [357], "min" : [0]}, {"bufferView" : 8, "byteOffset" : 0, "componentType" : 5126, "count" : 358, "type" : "VEC3", "max" : [0.12999512255191803, 2.350510358810425, 0.12999512255191803], "min" : [-0.12999512255191803, -1.5289443731307983, -0.6441102623939514], "name" : "POSITION"}, {"bufferView" : 0, "byteOffset" : 41892, "componentType" : 5123, "count" : 23514, "type" : "SCALAR", "max" : [3836], "min" : [0]}, {"bufferView" : 9, "byteOffset" : 0, "componentType" : 5126, "count" : 3837, "type" : "VEC3", "max" : [2.366018772125244, 4.631228446960449, 2.0999372005462646], "min" : [-2.366018772125244, 0.9545942544937134, -0.9004166126251221], "name" : "POSITION"}], "asset" : {"generator" : "Aspose.3D 24.6.0", "version" : "2.0"}, "buffers" : [{"uri" : "data:application/octet-stream;base64,", "byteLength" : 176968}], "bufferViews" : [{"buffer" : 0, "byteOffset" : 0, "byteLength" : 88920, "target" : 34963}, {"buffer" : 0, "byteOffset" : 88924, "byteLength" : 1668, "byteStride" : 12, "target" : 34962}, {"buffer" : 0, "byteOffset" : 90596, "byteLength" : 2808, "byteStride" : 12, "target" : 34962}, {"buffer" : 0, "byteOffset" : 93408, "byteLength" : 18072, "byteStride" : 12, "target" : 34962}, {"buffer" : 0, "byteOffset" : 111484, "byteLength" : 216, "byteStride" : 12, "target" : 34962}, {"buffer" : 0, "byteOffset" : 111704, "byteLength" : 7344, "byteStride" : 12, "target" : 34962}, {"buffer" : 0, "byteOffset" : 119052, "byteLength" : 216, "byteStride" : 12, "target" : 34962}, {"buffer" : 0, "byteOffset" : 119272, "byteLength" : 7344, "byteStride" : 12, "target" : 34962}, {"buffer" : 0, "byteOffset" : 126620, "byteLength" : 4296, "byteStride" : 12, "target" : 34962}, {"buffer" : 0, "byteOffset" : 130920, "byteLength" : 46044, "byteStride" : 12, "target" : 34962}], "materials" : [{"name" : "default", "pbrMetallicRoughness" : {"baseColorFactor" : [0.6000000238418579, 0.6000000238418579, 0.6000000238418579, 1], "metallicFactor" : 0, "roughnessFactor" : 1}, "emissiveFactor" : [0, 0, 0], "alphaMode" : "OPAQUE", "doubleSided" : false}, {"name" : "default", "pbrMetallicRoughness" : {"baseColorFactor" : [0.6000000238418579, 0.6000000238418579, 0.6000000238418579, 1], "metallicFactor" : 0, "roughnessFactor" : 1}, "emissiveFactor" : [0, 0, 0], "alphaMode" : "OPAQUE", "doubleSided" : false}, {"name" : "default", "pbrMetallicRoughness" : {"baseColorFactor" : [0.6000000238418579, 0.6000000238418579, 0.6000000238418579, 1], "metallicFactor" : 0, "roughnessFactor" : 1}, "emissiveFactor" : [0, 0, 0], "alphaMode" : "OPAQUE", "doubleSided" : false}, {"name" : "default", "pbrMetallicRoughness" : {"baseColorFactor" : [0.6000000238418579, 0.6000000238418579, 0.6000000238418579, 1], "metallicFactor" : 0, "roughnessFactor" : 1}, "emissiveFactor" : [0, 0, 0], "alphaMode" : "OPAQUE", "doubleSided" : false}, {"name" : "default", "pbrMetallicRoughness" : {"baseColorFactor" : [0.6000000238418579, 0.6000000238418579, 0.6000000238418579, 1], "metallicFactor" : 0, "roughnessFactor" : 1}, "emissiveFactor" : [0, 0, 0], "alphaMode" : "OPAQUE", "doubleSided" : false}, {"name" : "default", "pbrMetallicRoughness" : {"baseColorFactor" : [0.6000000238418579, 0.6000000238418579, 0.6000000238418579, 1], "metallicFactor" : 0, "roughnessFactor" : 1}, "emissiveFactor" : [0, 0, 0], "alphaMode" : "OPAQUE", "doubleSided" : false}, {"name" : "default", "pbrMetallicRoughness" : {"baseColorFactor" : [0.6000000238418579, 0.6000000238418579, 0.6000000238418579, 1], "metallicFactor" : 0, "roughnessFactor" : 1}, "emissiveFactor" : [0, 0, 0], "alphaMode" : "OPAQUE", "doubleSided" : false}, {"name" : "default", "pbrMetallicRoughness" : {"baseColorFactor" : [0.6000000238418579, 0.6000000238418579, 0.6000000238418579, 1], "metallicFactor" : 0, "roughnessFactor" : 1}, "emissiveFactor" : [0, 0, 0], "alphaMode" : "OPAQUE", "doubleSided" : false}, {"name" : "default", "pbrMetallicRoughness" : {"baseColorFactor" : [0.6000000238418579, 0.6000000238418579, 0.6000000238418579, 1], "metallicFactor" : 0, "roughnessFactor" : 1}, "emissiveFactor" : [0, 0, 0], "alphaMode" : "OPAQUE", "doubleSided" : false}], "meshes" : [{"primitives" : [{"attributes" : {"POSITION" : 1}, "indices" : 0, "material" : 0, "mode" : 4}]}, {"primitives" : [{"attributes" : {"POSITION" : 3}, "indices" : 2, "material" : 1, "mode" : 4}]}, {"primitives" : [{"attributes" : {"POSITION" : 5}, "indices" : 4, "material" : 2, "mode" : 4}]}, {"primitives" : [{"attributes" : {"POSITION" : 7}, "indices" : 6, "material" : 3, "mode" : 4}]}, {"primitives" : [{"attributes" : {"POSITION" : 9}, "indices" : 8, "material" : 4, "mode" : 4}]}, {"primitives" : [{"attributes" : {"POSITION" : 11}, "indices" : 10, "material" : 5, "mode" : 4}]}, {"primitives" : [{"attributes" : {"POSITION" : 13}, "indices" : 12, "material" : 6, "mode" : 4}]}, {"primitives" : [{"attributes" : {"POSITION" : 15}, "indices" : 14, "material" : 7, "mode" : 4}]}, {"primitives" : [{"attributes" : {"POSITION" : 17}, "indices" : 16, "material" : 8, "mode" : 4}]}], "nodes" : [{"mesh" : 0, "name" : "tiltrod_bracket_default"}, {"mesh" : 1, "name" : "tiltrod_default"}, {"mesh" : 2, "name" : "mesh_default"}, {"mesh" : 3, "name" : "lgnut_default"}, {"mesh" : 4, "name" : "shortbolt_default"}, {"mesh" : 5, "name" : "smllnut_default"}, {"mesh" : 6, "name" : "longbolt_default"}, {"mesh" : 7, "name" : "clamppost_default"}, {"mesh" : 8, "name" : "dishframe_default"}, {"children" : [0, 1, 2, 3, 4, 5, 6, 7, 8], "name" : "input.obj"}], "scene" : 0, "scenes" : [{"nodes" : [9]}]}