<?xml version="1.0" encoding="UTF-8"?>
<svg version="1.1" xmlns="http://www.w3.org/2000/svg" width="122" height="88">
<path d="M0 0 C40.26 0 80.52 0 122 0 C122 29.04 122 58.08 122 88 C81.74 88 41.48 88 0 88 C0 58.96 0 29.92 0 0 Z " fill="#918F90" transform="translate(0,0)"/>
<path d="M0 0 C3.63 0 7.26 0 11 0 C11.31453125 1.03898438 11.6290625 2.07796875 11.953125 3.1484375 C12.38519451 4.55735981 12.81749897 5.96621009 13.25 7.375 C13.45496094 8.05433594 13.65992187 8.73367187 13.87109375 9.43359375 C15.0691002 13.3180389 16.40841904 17.09138222 17.9453125 20.85546875 C20.47112788 27.05063974 22.48688817 33.39316467 24.53125 39.75976562 C24.82257813 40.65244141 25.11390625 41.54511719 25.4140625 42.46484375 C25.6713916 43.265271 25.9287207 44.06569824 26.19384766 44.89038086 C27.00571532 47.24815286 27.00571532 47.24815286 29 50 C29.69449185 48.01852795 30.38890571 46.03702854 31.08300781 44.05541992 C31.70189276 42.28856602 32.32103956 40.52180382 32.94042969 38.75512695 C34.68549385 33.77301217 36.42062257 28.78770171 38.140625 23.796875 C38.49253906 22.77795166 38.84445313 21.75902832 39.20703125 20.70922852 C39.88883421 18.73388319 40.56860806 16.75783604 41.24609375 14.78100586 C42.98230649 9.75706171 44.83100733 4.85345582 47 0 C50.3 0 53.6 0 57 0 C57 19.8 57 39.6 57 60 C55.02 60 53.04 60 51 60 C51 43.83 51 27.66 51 11 C50.34 11 49.68 11 49 11 C48.76216797 11.93005859 48.76216797 11.93005859 48.51953125 12.87890625 C45.69157019 23.612659 42.27787553 34.17212167 38.046875 44.4375 C35.94207005 49.58955987 33.98796006 54.80197329 32 60 C29.69 60 27.38 60 25 60 C21.50706879 51.05215068 18.20031609 42.05661298 15 33 C14.4628228 31.50369674 13.92503659 30.00761202 13.38671875 28.51171875 C12.84105005 26.98701344 12.29547573 25.46227435 11.75 23.9375 C11.49162354 23.22303711 11.23324707 22.50857422 10.96704102 21.77246094 C9.69727748 18.20646058 8.61227512 14.73925165 8 11 C7.34 11 6.68 11 6 11 C6 27.17 6 43.34 6 60 C4.02 60 2.04 60 0 60 C0 40.2 0 20.4 0 0 Z " fill="#FB3333" transform="translate(59,14)"/>
<path d="M0 0 C2.625 2.6875 2.625 2.6875 4 5 C3.01 6.32 2.02 7.64 1 9 C0.484375 8.731875 -0.03125 8.46375 -0.5625 8.1875 C-1.366875 7.795625 -2.17125 7.40375 -3 7 C-4.5159375 6.195625 -4.5159375 6.195625 -6.0625 5.375 C-10.90207603 3.33673364 -15.84709453 3.31718048 -21 4 C-24.32783723 5.17677203 -24.32783723 5.17677203 -26 8 C-26.68607836 11.14212357 -26.92656646 13.90417795 -26 17 C-22.0403022 21.25531375 -17.62924922 22.07993122 -12.1875 23.3125 C-5.10490198 25.07835292 0.3380933 27.04894868 5 33 C7.22755742 37.45511485 6.49048846 43.16436085 6 48 C4.35701263 52.66448122 1.28224871 55.15047951 -3 57.4375 C-10.33802317 60.26263892 -18.65682075 60.3205378 -25.9375 57.3125 C-29.75583302 55.34697433 -32.85160739 52.90620857 -36 50 C-35.75 48.125 -35.75 48.125 -35 46 C-32.953125 44.8671875 -32.953125 44.8671875 -31 44 C-30.45730469 44.49371094 -29.91460937 44.98742188 -29.35546875 45.49609375 C-28.28232422 46.45708984 -28.28232422 46.45708984 -27.1875 47.4375 C-26.12595703 48.39462891 -26.12595703 48.39462891 -25.04296875 49.37109375 C-21.52769787 52.17390055 -18.41054281 52.16062705 -14.0625 52.1875 C-12.50208984 52.20876953 -12.50208984 52.20876953 -10.91015625 52.23046875 C-7.97122951 51.99772153 -6.39074665 51.6954512 -4 50 C-2.16735397 47.22753549 -1.63549204 44.79697293 -1.5 41.5 C-1.4484375 40.7471875 -1.396875 39.994375 -1.34375 39.21875 C-1.86088189 36.71973844 -1.86088189 36.71973844 -4.53125 34.875 C-8.3091306 32.83290238 -11.87933621 31.62311325 -16 30.5 C-22.44071955 28.74454072 -27.19318176 26.36363641 -32.375 22 C-35.00729073 17.14038635 -34.93445939 12.38562476 -34 7 C-31.86565301 2.69359671 -28.85947091 0.52242349 -24.8125 -1.9375 C-16.54125372 -4.24260142 -7.81616756 -3.71231706 0 0 Z " fill="#064CAB" transform="translate(39,16)"/>
<path d="M0 0 C0.66 0 1.32 0 2 0 C2 16.17 2 32.34 2 49 C1.67 49 1.34 49 1 49 C0.67 34.81 0.34 20.62 0 6 C-0.99 6.495 -0.99 6.495 -2 7 C-1.34 4.69 -0.68 2.38 0 0 Z " fill="#AE7575" transform="translate(108,25)"/>
</svg>
